# xmcd
#
# Track frame offsets: 
#        150
#        12328
#        23623
#        36110
#        51112
#        62042
#        72143
#        82075
#        95738
#        105424
#
# Disc length: 1551 seconds
#
# Revision: 0
# Processed by: cddbd v1.4PL0 Copyright (c) Steve Scherf et al.
# Submitted via: ExactAudioCopy v0.90b2
#
DISCID=7a060d0a
DTITLE=Porter Wagoner - Greatest Hits (Front Row Entertainment)
DYEAR=1900
DGENRE=Country
TTITLE0=A Satisfied Mind
TTITLE1=Misery Loves Company
TTITLE2=The Carroll County Accident
TTITLE3=The Cold Hard Facts Of Life
TTITLE4=Eat, Drink, And Be Merry (Tomorrow You'll Cry)
TTITLE5=Green, Green Grass Of Home
TTITLE6=Big Wind
TTITLE7=Skid Row Joe
TTITLE8=Sorrow On The Rocks
TTITLE9=What Would You Do (If Jesus Came To Your House)
EXTD=
EXTT0=
EXTT1=
EXTT2=
EXTT3=
EXTT4=
EXTT5=
EXTT6=
EXTT7=
EXTT8=
EXTT9=
PLAYORDER=
